<svg xmlns="http://www.w3.org/2000/svg" width="207" height="30" fill="none"><path fill="#fff" fill-rule="evenodd" d="M0 0h30.005v30H0V0Zm26.936 3.068v23.864H3.069V3.068h23.867Z" clip-rule="evenodd"/><path fill="#fff" d="M54.846 17.64h-3.232c-.47 2.928-2.43 4.613-5.138 4.613-3.59 0-5.938-2.79-5.938-7.236 0-4.391 2.265-7.236 5.745-7.236 2.817 0 4.668 1.657 5.193 4.64h3.232c-.636-4.364-4.144-7.208-8.536-7.208-5.275 0-8.921 4.363-8.921 9.804 0 5.607 3.729 9.805 9.004 9.805 4.392 0 7.928-2.817 8.59-7.181Z"/><path fill="#fff" fill-rule="evenodd" d="M69.675 17.64c0-3.728-2.569-7.18-6.767-7.18-4.199 0-6.768 3.452-6.768 7.18 0 3.73 2.57 7.182 6.768 7.182s6.767-3.453 6.767-7.181Zm-10.358 0c0-2.954 1.298-4.943 3.59-4.943 2.321 0 3.62 1.989 3.62 4.944 0 2.927-1.299 4.944-3.62 4.944-2.292 0-3.59-2.017-3.59-4.944ZM81.424 21.645h-.083c-.662 1.906-2.264 3.177-4.364 3.177-3.756 0-5.8-3.315-5.8-7.181 0-3.867 2.126-7.18 5.8-7.18 2.1 0 3.702 1.242 4.364 3.148h.083v-8.12h2.956v19.056h-2.956v-2.9Zm-3.48-8.948c-2.293 0-3.59 1.989-3.59 4.944 0 2.927 1.297 4.944 3.59 4.944 2.32 0 3.59-2.017 3.59-4.944 0-2.955-1.27-4.944-3.59-4.944ZM99.24 20.265h-3.011c-.332 1.104-1.105 2.32-2.9 2.32-2.1 0-3.564-1.464-3.702-3.977h9.861c.415-4.806-2.293-8.148-6.408-8.148-4.116 0-6.464 3.37-6.464 7.18 0 3.812 2.403 7.182 6.52 7.182 3.369 0 5.523-1.823 6.104-4.557Zm-6.16-7.568c2.016 0 3.204 1.436 3.397 3.674h-6.822c.193-2.238 1.408-3.674 3.425-3.674Z" clip-rule="evenodd"/><path fill="#fff" d="M111.143 13.581c3.591.829 5.386 2.707 5.386 5.717 0 3.176-3.093 5.524-7.513 5.524-5.055 0-7.789-3.535-8.093-6.988h3.232c.193 2.486 2.21 4.42 4.889 4.42 2.431 0 4.226-1.05 4.226-2.818 0-1.546-1.16-2.375-3.618-2.955l-2.763-.635c-3.729-.884-5.579-2.624-5.579-5.275 0-3.204 3.149-5.358 6.988-5.358 4.862 0 7.348 2.651 7.679 5.938h-3.232c-.248-2.265-2.154-3.37-4.392-3.37-2.182 0-3.756.94-3.756 2.569 0 1.298.966 1.905 3.784 2.568l2.762.663Z"/><path fill="#fff" fill-rule="evenodd" d="M128.148 21.645h.083v2.9h2.955V10.736h-2.955v2.873h-.083c-.663-1.906-2.265-3.149-4.364-3.149-3.674 0-5.801 3.314-5.801 7.18 0 3.867 2.044 7.182 5.801 7.182 2.099 0 3.701-1.27 4.364-3.177Zm-6.988-4.004c0-2.955 1.325-4.944 3.563-4.944 2.237 0 3.618 1.989 3.618 4.944 0 2.927-1.381 4.944-3.618 4.944-2.21 0-3.563-2.017-3.563-4.944Z" clip-rule="evenodd"/><path fill="#fff" d="M137.207 16.26v8.285h-3.011V10.736h2.928v2.707h.055c.58-1.933 2.017-2.983 4.033-2.983 3.039 0 4.53 2.072 4.53 5.11v8.975h-3.011v-8.092c0-2.568-.911-3.728-2.762-3.728s-2.762 1.27-2.762 3.535Z"/><path fill="#fff" fill-rule="evenodd" d="M158.057 21.645h.083v2.9h2.956V5.49h-2.956v8.12h-.083c-.662-1.906-2.265-3.149-4.364-3.149-3.674 0-5.8 3.314-5.8 7.18 0 3.867 2.044 7.182 5.8 7.182 2.099 0 3.702-1.27 4.364-3.177Zm-6.988-4.004c0-2.955 1.298-4.944 3.591-4.944 2.32 0 3.591 1.989 3.591 4.944 0 2.927-1.271 4.944-3.591 4.944-2.293 0-3.591-2.017-3.591-4.944ZM171.508 10.46c3.674 0 5.801 3.314 5.801 7.18 0 3.867-2.044 7.182-5.801 7.182-2.099 0-3.701-1.27-4.364-3.177h-.083v2.9h-2.955V5.49h2.955v8.12h.083c.663-1.906 2.265-3.149 4.364-3.149Zm-.966 2.237c-2.321 0-3.591 1.989-3.591 4.944 0 2.927 1.27 4.944 3.591 4.944 2.292 0 3.59-2.017 3.59-4.944 0-2.955-1.298-4.944-3.59-4.944ZM192.361 17.64c0-3.728-2.569-7.18-6.767-7.18-4.199 0-6.768 3.452-6.768 7.18 0 3.73 2.569 7.182 6.768 7.182 4.198 0 6.767-3.453 6.767-7.181Zm-10.358 0c0-2.954 1.298-4.943 3.591-4.943 2.32 0 3.618 1.989 3.618 4.944 0 2.927-1.298 4.944-3.618 4.944-2.293 0-3.591-2.017-3.591-4.944Z" clip-rule="evenodd"/><path fill="#fff" d="m199.102 19.188-3.674 5.357h-3.397l5.303-7.429-4.613-6.38h3.398l2.983 4.309 2.983-4.309h3.37l-4.585 6.353 5.276 7.456h-3.37l-3.674-5.358Z"/></svg>